<?xml version="1.0" encoding="UTF-8" standalone="no"?>
<!DOCTYPE svg PUBLIC "-//W3C//DTD SVG 1.1//EN" "http://www.w3.org/Graphics/SVG/1.1/DTD/svg11.dtd">
<svg width="100%" height="100%" viewBox="0 0 2550 3300" version="1.1" xmlns="http://www.w3.org/2000/svg" xmlns:xlink="http://www.w3.org/1999/xlink" xml:space="preserve" xmlns:serif="http://www.serif.com/" style="fill-rule:evenodd;clip-rule:evenodd;stroke-linecap:round;stroke-linejoin:round;stroke-miterlimit:1.5;">
    <path d="M1200,600L1200,450" style="fill:none;stroke:black;stroke-width:9.69px;"/>
    <g transform="matrix(-1,0,0,1,2400,0)">
        <path d="M450,900L450,787.5L900,787.5" style="fill:none;stroke:black;stroke-width:9.69px;"/>
    </g>
    <path d="M450,900L450,787.5L900,787.5" style="fill:none;stroke:black;stroke-width:9.69px;"/>
    <g transform="matrix(-1,0,0,-1,2400,1500)">
        <path d="M450,900L450,787.5L900,787.5" style="fill:none;stroke:black;stroke-width:9.69px;"/>
    </g>
    <g transform="matrix(1,0,0,-1,0,1500)">
        <path d="M450,900L450,787.5L900,787.5" style="fill:none;stroke:black;stroke-width:9.69px;"/>
    </g>
    <g transform="matrix(0.5,0,0,1,150,-1.13687e-13)">
        <rect x="300" y="300" width="600" height="300" style="fill:rgb(235,235,235);"/>
    </g>
    <rect x="1800" y="300" width="300" height="300" style="fill:rgb(235,235,235);"/>
    <rect x="1800" y="900" width="300" height="300" style="fill:rgb(235,235,235);"/>
    <rect x="900" y="300" width="600" height="150" style="fill:rgb(235,235,235);"/>
    <g transform="matrix(0.5,0,0,1,150,-1.13687e-13)">
        <rect x="300" y="900" width="600" height="300" style="fill:rgb(235,235,235);"/>
    </g>
    <g transform="matrix(1,0,0,1,-300,0)">
        <rect x="1200" y="600" width="600" height="300" style="fill:rgb(235,235,235);"/>
    </g>
    <g transform="matrix(1,0,0,1,70.3565,14.9501)">
        <text x="1037.72px" y="372.684px" style="font-family:'ArialMT', 'Arial', sans-serif;font-size:50px;">Memory</text>
    </g>
    <g transform="matrix(1,0,0,1,-663.481,61.8983)">
        <text x="1080.8px" y="372.684px" style="font-family:'ArialMT', 'Arial', sans-serif;font-size:50px;">I/O</text>
        <text x="1037.72px" y="424.32px" style="font-family:'ArialMT', 'Arial', sans-serif;font-size:50px;">Device</text>
    </g>
    <g transform="matrix(1,0,0,1,-666.582,662.594)">
        <text x="1080.8px" y="372.684px" style="font-family:'ArialMT', 'Arial', sans-serif;font-size:50px;">I/O</text>
        <text x="1037.72px" y="424.32px" style="font-family:'ArialMT', 'Arial', sans-serif;font-size:50px;">Device</text>
    </g>
    <g transform="matrix(1,0,0,1,836.519,61.8983)">
        <text x="1080.8px" y="372.684px" style="font-family:'ArialMT', 'Arial', sans-serif;font-size:50px;">I/O</text>
        <text x="1037.72px" y="424.32px" style="font-family:'ArialMT', 'Arial', sans-serif;font-size:50px;">Device</text>
    </g>
    <g transform="matrix(1,0,0,1,836.519,662.594)">
        <text x="1080.8px" y="372.684px" style="font-family:'ArialMT', 'Arial', sans-serif;font-size:50px;">I/O</text>
        <text x="1037.72px" y="424.32px" style="font-family:'ArialMT', 'Arial', sans-serif;font-size:50px;">Device</text>
    </g>
    <g transform="matrix(1,0,0,1,47.4683,394.918)">
        <text x="1037.72px" y="372.684px" style="font-family:'ArialMT', 'Arial', sans-serif;font-size:50px;">Processor</text>
    </g>
</svg>
